<svg width="150" height="40" viewBox="0 0 150 40" fill="none" xmlns="http://www.w3.org/2000/svg">
<rect width="150" height="40" rx="6" fill="#828282"/>
<path d="M13.8647 25.12C13.0747 25.12 12.3097 25 11.5697 24.76C10.8397 24.51 10.2647 24.19 9.84474 23.8L10.3997 22.63C10.7997 22.99 11.3097 23.285 11.9297 23.515C12.5597 23.735 13.2047 23.845 13.8647 23.845C14.7347 23.845 15.3847 23.7 15.8147 23.41C16.2447 23.11 16.4597 22.715 16.4597 22.225C16.4597 21.865 16.3397 21.575 16.0997 21.355C15.8697 21.125 15.5797 20.95 15.2297 20.83C14.8897 20.71 14.4047 20.575 13.7747 20.425C12.9847 20.235 12.3447 20.045 11.8547 19.855C11.3747 19.665 10.9597 19.375 10.6097 18.985C10.2697 18.585 10.0997 18.05 10.0997 17.38C10.0997 16.82 10.2447 16.315 10.5347 15.865C10.8347 15.415 11.2847 15.055 11.8847 14.785C12.4847 14.515 13.2297 14.38 14.1197 14.38C14.7397 14.38 15.3497 14.46 15.9497 14.62C16.5497 14.78 17.0647 15.01 17.4947 15.31L16.9997 16.51C16.5597 16.23 16.0897 16.02 15.5897 15.88C15.0897 15.73 14.5997 15.655 14.1197 15.655C13.2697 15.655 12.6297 15.81 12.1997 16.12C11.7797 16.43 11.5697 16.83 11.5697 17.32C11.5697 17.68 11.6897 17.975 11.9297 18.205C12.1697 18.425 12.4647 18.6 12.8147 18.73C13.1747 18.85 13.6597 18.98 14.2697 19.12C15.0597 19.31 15.6947 19.5 16.1747 19.69C16.6547 19.88 17.0647 20.17 17.4047 20.56C17.7547 20.95 17.9297 21.475 17.9297 22.135C17.9297 22.685 17.7797 23.19 17.4797 23.65C17.1797 24.1 16.7247 24.46 16.1147 24.73C15.5047 24.99 14.7547 25.12 13.8647 25.12ZM27.0961 17.05V25H25.7311V23.8C25.4411 24.21 25.0561 24.53 24.5761 24.76C24.1061 24.98 23.5911 25.09 23.0311 25.09C21.9711 25.09 21.1361 24.8 20.5261 24.22C19.9161 23.63 19.6111 22.765 19.6111 21.625V17.05H21.0511V21.46C21.0511 22.23 21.2361 22.815 21.6061 23.215C21.9761 23.605 22.5061 23.8 23.1961 23.8C23.9561 23.8 24.5561 23.57 24.9961 23.11C25.4361 22.65 25.6561 22 25.6561 21.16V17.05H27.0961ZM33.8275 16.975C34.5975 16.975 35.2875 17.145 35.8975 17.485C36.5075 17.825 36.9825 18.3 37.3225 18.91C37.6725 19.52 37.8475 20.225 37.8475 21.025C37.8475 21.825 37.6725 22.535 37.3225 23.155C36.9825 23.765 36.5075 24.24 35.8975 24.58C35.2875 24.92 34.5975 25.09 33.8275 25.09C33.2375 25.09 32.6975 24.975 32.2075 24.745C31.7175 24.515 31.3125 24.18 30.9925 23.74V25H29.6125V13.87H31.0525V18.25C31.3725 17.83 31.7725 17.515 32.2525 17.305C32.7325 17.085 33.2575 16.975 33.8275 16.975ZM33.7075 23.83C34.2175 23.83 34.6725 23.715 35.0725 23.485C35.4825 23.245 35.8025 22.915 36.0325 22.495C36.2725 22.065 36.3925 21.575 36.3925 21.025C36.3925 20.475 36.2725 19.99 36.0325 19.57C35.8025 19.14 35.4825 18.81 35.0725 18.58C34.6725 18.35 34.2175 18.235 33.7075 18.235C33.2075 18.235 32.7525 18.35 32.3425 18.58C31.9325 18.81 31.6125 19.14 31.3825 19.57C31.1525 19.99 31.0375 20.475 31.0375 21.025C31.0375 21.575 31.1525 22.065 31.3825 22.495C31.6125 22.915 31.9325 23.245 32.3425 23.485C32.7525 23.715 33.2075 23.83 33.7075 23.83ZM49.5571 16.975C50.5571 16.975 51.3471 17.265 51.9271 17.845C52.5171 18.425 52.8121 19.285 52.8121 20.425V25H51.3721V20.59C51.3721 19.82 51.1921 19.24 50.8321 18.85C50.4821 18.46 49.9771 18.265 49.3171 18.265C48.5871 18.265 48.0071 18.495 47.5771 18.955C47.1471 19.405 46.9321 20.055 46.9321 20.905V25H45.4921V20.59C45.4921 19.82 45.3121 19.24 44.9521 18.85C44.6021 18.46 44.0971 18.265 43.4371 18.265C42.7071 18.265 42.1271 18.495 41.6971 18.955C41.2671 19.405 41.0521 20.055 41.0521 20.905V25H39.6121V17.05H40.9921V18.235C41.2821 17.825 41.6621 17.515 42.1321 17.305C42.6021 17.085 43.1371 16.975 43.7371 16.975C44.3571 16.975 44.9071 17.1 45.3871 17.35C45.8671 17.6 46.2371 17.965 46.4971 18.445C46.7971 17.985 47.2121 17.625 47.7421 17.365C48.2821 17.105 48.8871 16.975 49.5571 16.975ZM55.2367 17.05H56.6767V25H55.2367V17.05ZM55.9567 15.52C55.6767 15.52 55.4417 15.43 55.2517 15.25C55.0717 15.07 54.9817 14.85 54.9817 14.59C54.9817 14.33 55.0717 14.11 55.2517 13.93C55.4417 13.74 55.6767 13.645 55.9567 13.645C56.2367 13.645 56.4667 13.735 56.6467 13.915C56.8367 14.085 56.9317 14.3 56.9317 14.56C56.9317 14.83 56.8367 15.06 56.6467 15.25C56.4667 15.43 56.2367 15.52 55.9567 15.52ZM63.6712 24.535C63.4612 24.715 63.2012 24.855 62.8912 24.955C62.5812 25.045 62.2612 25.09 61.9312 25.09C61.1312 25.09 60.5112 24.875 60.0712 24.445C59.6312 24.015 59.4112 23.4 59.4112 22.6V18.235H58.0612V17.05H59.4112V15.31H60.8512V17.05H63.1312V18.235H60.8512V22.54C60.8512 22.97 60.9562 23.3 61.1662 23.53C61.3862 23.76 61.6962 23.875 62.0962 23.875C62.5362 23.875 62.9112 23.75 63.2212 23.5L63.6712 24.535ZM76.0254 17.05L72.1704 25.795C71.8304 26.605 71.4304 27.175 70.9704 27.505C70.5204 27.835 69.9754 28 69.3354 28C68.9454 28 68.5654 27.935 68.1954 27.805C67.8354 27.685 67.5354 27.505 67.2954 27.265L67.9104 26.185C68.3204 26.575 68.7954 26.77 69.3354 26.77C69.6854 26.77 69.9754 26.675 70.2054 26.485C70.4454 26.305 70.6604 25.99 70.8504 25.54L71.1054 24.985L67.5954 17.05H69.0954L71.8704 23.41L74.6154 17.05H76.0254ZM80.3296 25.09C79.5396 25.09 78.8296 24.915 78.1996 24.565C77.5696 24.215 77.0746 23.735 76.7146 23.125C76.3646 22.505 76.1896 21.805 76.1896 21.025C76.1896 20.245 76.3646 19.55 76.7146 18.94C77.0746 18.32 77.5696 17.84 78.1996 17.5C78.8296 17.15 79.5396 16.975 80.3296 16.975C81.1196 16.975 81.8246 17.15 82.4446 17.5C83.0746 17.84 83.5646 18.32 83.9146 18.94C84.2746 19.55 84.4546 20.245 84.4546 21.025C84.4546 21.805 84.2746 22.505 83.9146 23.125C83.5646 23.735 83.0746 24.215 82.4446 24.565C81.8246 24.915 81.1196 25.09 80.3296 25.09ZM80.3296 23.83C80.8396 23.83 81.2946 23.715 81.6946 23.485C82.1046 23.245 82.4246 22.915 82.6546 22.495C82.8846 22.065 82.9996 21.575 82.9996 21.025C82.9996 20.475 82.8846 19.99 82.6546 19.57C82.4246 19.14 82.1046 18.81 81.6946 18.58C81.2946 18.35 80.8396 18.235 80.3296 18.235C79.8196 18.235 79.3596 18.35 78.9496 18.58C78.5496 18.81 78.2296 19.14 77.9896 19.57C77.7596 19.99 77.6446 20.475 77.6446 21.025C77.6446 21.575 77.7596 22.065 77.9896 22.495C78.2296 22.915 78.5496 23.245 78.9496 23.485C79.3596 23.715 79.8196 23.83 80.3296 23.83ZM93.6311 17.05V25H92.2661V23.8C91.9761 24.21 91.5911 24.53 91.1111 24.76C90.6411 24.98 90.1261 25.09 89.5661 25.09C88.5061 25.09 87.6711 24.8 87.0611 24.22C86.4511 23.63 86.1461 22.765 86.1461 21.625V17.05H87.5861V21.46C87.5861 22.23 87.7711 22.815 88.1411 23.215C88.5111 23.605 89.0411 23.8 89.7311 23.8C90.4911 23.8 91.0911 23.57 91.5311 23.11C91.9711 22.65 92.1911 22 92.1911 21.16V17.05H93.6311ZM97.5275 18.385C97.7775 17.925 98.1475 17.575 98.6375 17.335C99.1275 17.095 99.7225 16.975 100.422 16.975V18.37C100.342 18.36 100.232 18.355 100.092 18.355C99.3125 18.355 98.6975 18.59 98.2475 19.06C97.8075 19.52 97.5875 20.18 97.5875 21.04V25H96.1475V17.05H97.5275V18.385ZM117.908 17.05L114.938 25H113.558L111.263 18.97L108.938 25H107.558L104.603 17.05H105.968L108.278 23.38L110.678 17.05H111.893L114.248 23.41L116.618 17.05H117.908ZM122.33 25.09C121.54 25.09 120.83 24.915 120.2 24.565C119.57 24.215 119.075 23.735 118.715 23.125C118.365 22.505 118.19 21.805 118.19 21.025C118.19 20.245 118.365 19.55 118.715 18.94C119.075 18.32 119.57 17.84 120.2 17.5C120.83 17.15 121.54 16.975 122.33 16.975C123.12 16.975 123.825 17.15 124.445 17.5C125.075 17.84 125.565 18.32 125.915 18.94C126.275 19.55 126.455 20.245 126.455 21.025C126.455 21.805 126.275 22.505 125.915 23.125C125.565 23.735 125.075 24.215 124.445 24.565C123.825 24.915 123.12 25.09 122.33 25.09ZM122.33 23.83C122.84 23.83 123.295 23.715 123.695 23.485C124.105 23.245 124.425 22.915 124.655 22.495C124.885 22.065 125 21.575 125 21.025C125 20.475 124.885 19.99 124.655 19.57C124.425 19.14 124.105 18.81 123.695 18.58C123.295 18.35 122.84 18.235 122.33 18.235C121.82 18.235 121.36 18.35 120.95 18.58C120.55 18.81 120.23 19.14 119.99 19.57C119.76 19.99 119.645 20.475 119.645 21.025C119.645 21.575 119.76 22.065 119.99 22.495C120.23 22.915 120.55 23.245 120.95 23.485C121.36 23.715 121.82 23.83 122.33 23.83ZM129.601 18.385C129.851 17.925 130.221 17.575 130.711 17.335C131.201 17.095 131.796 16.975 132.496 16.975V18.37C132.416 18.36 132.306 18.355 132.166 18.355C131.386 18.355 130.771 18.59 130.321 19.06C129.881 19.52 129.661 20.18 129.661 21.04V25H128.221V17.05H129.601V18.385ZM137.136 21.295L135.486 22.825V25H134.046V13.87H135.486V21.01L139.821 17.05H141.561L138.216 20.335L141.891 25H140.121L137.136 21.295Z" fill="white"/>
</svg>
